<?xml version="1.0" encoding="utf-8"?>
<!-- Uploaded to: SVG Repo, www.svgrepo.com, Generator: SVG Repo Mixer Tools -->
<svg fill="#000000" width="20px" height="800px" viewBox="0 0 32 32" version="1.1" xmlns="http://www.w3.org/2000/svg">
<title>bars-sort</title>
<path d="M30 6.749h-28c-0.69 0-1.25 0.56-1.25 1.25s0.56 1.25 1.25 1.25v0h28c0.69 0 1.25-0.56 1.25-1.25s-0.56-1.25-1.25-1.25v0zM18 14.75h-16c-0.69 0-1.25 0.56-1.25 1.25s0.56 1.25 1.25 1.25v0h16c0.69 0 1.25-0.56 1.25-1.25s-0.56-1.25-1.25-1.25v0zM8.053 22.75h-6.053c-0.69 0-1.25 0.56-1.25 1.25s0.56 1.25 1.25 1.25v0h6.053c0.69 0 1.25-0.56 1.25-1.25s-0.56-1.25-1.25-1.25v0z"></path>
</svg>